<?xml version="1.0" encoding="utf-8"?>
<!-- Generator: Adobe Illustrator 18.1.1, SVG Export Plug-In . SVG Version: 6.00 Build 0)  -->
<svg version="1.1" id="Layer_1" xmlns:sketch="http://www.bohemiancoding.com/sketch/ns"
	 xmlns="http://www.w3.org/2000/svg" xmlns:xlink="http://www.w3.org/1999/xlink" x="0px" y="0px" viewBox="-278.2 633 271.6 341.9"
	 enable-background="new -278.2 633 271.6 341.9" xml:space="preserve">
<g>
	<path id="Fill-3_4_" fill="#3FB5A0" d="M-98,717c1.2,0.6,2.2,1.4,3,2.3c0.1,0.1,0.1,0.1,0.2,0.1c0,0,0.1,0,0.1,0l23-9.9
		c0.1-0.1,0.2-0.2,0.2-0.3c0-0.1,0-0.2-0.1-0.3L-93,687.4c-0.1-0.1-0.2-0.1-0.2-0.1c0,0-0.1,0-0.1,0c-0.1,0-0.2,0.1-0.2,0.3
		l-4.7,29.1C-98.2,716.8-98.2,717-98,717"/>
	<path id="Fill-4_4_" fill="#3FB5A0" d="M-145.1,698c-0.1-0.2-0.3-0.4-0.4-0.6C-145.4,697.5-145.2,697.7-145.1,698L-145.1,698
		L-145.1,698z M-143.5,703.2c-0.1-0.8-0.2-1.5-0.4-2.3C-143.7,701.7-143.5,702.4-143.5,703.2L-143.5,703.2L-143.5,703.2z
		 M-121.4,659.5l21.4,21.5L-121.4,659.5l-16.1,25.2L-121.4,659.5L-121.4,659.5z M-108.5,717.4c0.8-0.5,1.7-0.9,2.6-1.2
		C-106.8,716.4-107.7,716.8-108.5,717.4L-108.5,717.4L-108.5,717.4z M-145.8,697.5c1.1,1.7,1.8,3.7,2,5.7c0,0.1,0.1,0.2,0.2,0.3
		l34.2,14.7c0.1,0,0.1,0,0.1,0c0.1,0,0.2,0,0.2-0.1c1-0.8,2.2-1.4,3.5-1.8c0.1,0,0.2-0.1,0.2-0.3l5.6-35.1c0-0.1,0-0.2-0.1-0.3
		l-21.4-21.5c-0.1-0.1-0.1-0.1-0.2-0.1h0c-0.1,0-0.2,0.1-0.2,0.2l-24.1,37.8C-145.9,697.2-145.9,697.4-145.8,697.5L-145.8,697.5
		L-145.8,697.5z"/>
	<path id="Fill-5_4_" fill="#3FB5A0" d="M-28.9,751.6l-36.7-36.8c-0.1-0.1-0.2-0.1-0.2-0.1c0,0-0.1,0-0.1,0l-24.9,10.7
		c-0.1,0.1-0.2,0.2-0.2,0.3c0,0.1,0.1,0.3,0.2,0.3l61.4,26.3c0,0,0.1,0,0.1,0c0.1,0,0.2,0,0.2-0.1l0.2-0.2
		C-28.8,752-28.8,751.8-28.9,751.6"/>
	<path id="Fill-6_4_" fill="#3FB5A0" d="M-35.1,757.6L-94,732.4c-0.1,0-0.1,0-0.1,0c-0.1,0-0.2,0-0.3,0.1c-1.6,2.2-4,3.6-6.8,4
		c-0.1,0-0.3,0.1-0.3,0.3l-6.3,39.1c0,0.1,0,0.2,0.1,0.3c2.2,1.7,3.5,4.2,3.8,7c0,0.2,0.1,0.3,0.3,0.3l35.6,7.5h0.1
		c0.1,0,0.2,0,0.2-0.1l32.6-32.7c0.1-0.1,0.1-0.2,0.1-0.3C-34.9,757.8-35,757.7-35.1,757.6"/>
	<path id="Fill-7_4_" fill="#3FB5A0" d="M-184,757.6L-184,757.6l16.2-25.3L-184,757.6L-184,757.6z M-113.1,724.2l-32.2-13.8
		c0,0-0.1,0-0.1,0c-0.1,0-0.2,0.1-0.3,0.2c-2.2,3.4-5.9,5.4-9.9,5.4c-0.6,0-1.2-0.1-1.9-0.2h-0.1c-0.1,0-0.2,0.1-0.3,0.2l-26.5,41.5
		c-0.1,0.1-0.1,0.3,0,0.4c0.1,0.1,0.2,0.1,0.3,0.1c0.1,0,0.1,0,0.1,0l70.7-30.5c0.1-0.1,0.2-0.2,0.2-0.3c0-0.1,0-0.2,0-0.4
		c0-0.2,0-0.3,0-0.5c0-0.6,0.1-1.2,0.2-1.7C-112.8,724.4-112.9,724.3-113.1,724.2L-113.1,724.2L-113.1,724.2z"/>
	<path id="Fill-8_4_" fill="#3FB5A0" d="M-117.8,840.6l43.4-43.5L-117.8,840.6L-117.8,840.6z M-105.6,790.6L-105.6,790.6
		c-0.1,0.2-0.3,0.3-0.4,0.5C-105.9,791-105.7,790.8-105.6,790.6L-105.6,790.6L-105.6,790.6z M-74.3,796.8l-31.3-6.5c0,0-0.1,0-0.1,0
		c-0.1,0-0.2,0.1-0.3,0.1c-1.2,1.5-2.7,2.7-4.5,3.4c-0.1,0-0.2,0.2-0.2,0.3l-7.5,46.6c0,0.2,0.1,0.3,0.2,0.4c0,0,0.1,0,0.2,0
		c0.1,0,0.2,0,0.2-0.1l43.4-43.5c0.1-0.1,0.1-0.2,0.1-0.3C-74.1,797-74.2,796.9-74.3,796.8L-74.3,796.8L-74.3,796.8z"/>
	<path id="Fill-9_4_" fill="#3FB5A0" d="M-124.2,786.7c0.1,0.4,0.2,0.8,0.4,1.2C-124,787.5-124.1,787.1-124.2,786.7L-124.2,786.7
		L-124.2,786.7z M-117.9,793.7c-3-1.2-5.2-3.9-6-7c0-0.1-0.1-0.2-0.3-0.3l-58-12.1c0,0,0,0-0.1,0c-0.1,0-0.2,0.1-0.3,0.2
		c-0.3,0.5-0.5,0.9-0.8,1.3c-0.1,0.1-0.1,0.3,0,0.4l52.8,77.2c0.1,0.1,0.1,0.1,0.2,0.1h0c0.1,0,0.2,0,0.2-0.1l3.2-3.2
		c0-0.1,0.1-0.1,0.1-0.2l9-56C-117.7,793.9-117.8,793.7-117.9,793.7L-117.9,793.7L-117.9,793.7z"/>
	<path id="Fill-10_4_" fill="#3FB5A0" d="M-180.7,767l39.9,8.3L-180.7,767L-180.7,767z M-108.6,735.2L-108.6,735.2
		c-0.2-0.1-0.4-0.3-0.6-0.5C-109.1,734.9-108.8,735.1-108.6,735.2L-108.6,735.2L-108.6,735.2z M-181,767.1c0,0.2,0.1,0.3,0.3,0.3
		l57.5,12h0.1c0.1,0,0.2-0.1,0.3-0.2c1.7-3,4.7-5,8.1-5.2c0.2,0,0.3-0.1,0.3-0.3l6.2-38.5c0-0.1,0-0.3-0.2-0.3
		c-0.4-0.3-0.8-0.6-1.3-1.1c-0.1-0.1-0.2-0.1-0.2-0.1c-0.1,0-0.1,0-0.1,0l-71.1,30.7c-0.2,0.1-0.2,0.2-0.2,0.4
		C-181.2,765.6-181.1,766.3-181,767.1L-181,767.1L-181,767.1z"/>
	<path id="Fill-11_4_" fill="#3FB5A0" d="M-205.2,776.8c-0.3-0.4-0.6-0.8-0.9-1.3c-0.1-0.1-0.2-0.2-0.3-0.2c0,0-0.1,0-0.1,0
		l-24.8,10.7c-0.1,0-0.2,0.1-0.2,0.2c0,0.1,0,0.2,0.1,0.3l12.1,12.1c0.1,0.1,0.2,0.1,0.2,0.1h0c0.1,0,0.2-0.1,0.3-0.2l13.7-21.5
		C-205.1,777.1-205.1,776.9-205.2,776.8"/>
	<path id="Fill-12_4_" fill="#3FB5A0" d="M-213.4,804.3L-213.4,804.3l66,66.1L-213.4,804.3L-213.4,804.3z M-188.7,780.7
		c-0.1-0.1-0.2-0.2-0.3-0.2c-0.1,0-0.1,0-0.1,0c-1.8,0.8-3.6,1.2-5.5,1.2c-1.5,0-2.9-0.2-4.4-0.7c0,0-0.1,0-0.1,0
		c-0.1,0-0.2,0.1-0.3,0.2l-14.4,22.6l0,0v0l-0.1,0.1c-0.1,0.1-0.1,0.3,0,0.4l66.2,66.3c0.1,0.1,0.2,0.1,0.2,0.1c0.1,0,0.2,0,0.2-0.1
		l11.6-11.7c0.1-0.1,0.1-0.3,0-0.4L-188.7,780.7L-188.7,780.7z"/>
	<path id="Fill-13_4_" fill="#3FB5A0" d="M-200.9,687l-25.5,25.6l28.7,41.9l-28.7-41.9L-200.9,687L-200.9,687z M-192.4,754.3
		c-0.5-0.1-1.1-0.2-1.7-0.2C-193.5,754.1-193,754.2-192.4,754.3L-192.4,754.3L-192.4,754.3z M-167.7,702.7c-0.1,0.3-0.1,0.7-0.1,1.1
		C-167.7,703.4-167.7,703-167.7,702.7L-167.7,702.7L-167.7,702.7z M-198,754.6c0.1,0.1,0.2,0.2,0.3,0.2c0,0,0.1,0,0.1,0
		c1-0.2,2.1-0.4,3.1-0.4c1.1,0,2.3,0.2,3.4,0.5c0,0,0.1,0,0.1,0c0.1,0,0.2-0.1,0.3-0.2l26.8-42c0.1-0.1,0.1-0.3,0-0.4
		c-2.1-2.2-3.3-5.1-3.3-8.2c0-0.9,0.1-1.8,0.3-2.7c0-0.2-0.1-0.3-0.2-0.4c-3.4-1.5-33.5-14.3-33.5-14.4c0,0-0.1,0-0.1,0
		c-0.1,0-0.2,0-0.2,0.1l-25.5,25.6c-0.1,0.1-0.1,0.3,0,0.4L-198,754.6L-198,754.6z"/>
	<path id="Fill-14_4_" fill="#3FB5A0" d="M-151.6,692.6c-0.5-0.2-0.9-0.3-1.4-0.4C-152.5,692.3-152.1,692.4-151.6,692.6
		L-151.6,692.6L-151.6,692.6z M-195.2,681.4c0,0,30.4,13,31.7,13.6c0.1,0,0.1,0,0.1,0c0.1,0,0.1,0,0.2-0.1c2.1-1.7,4.8-2.7,7.5-2.7
		c1.3,0,2.6,0.2,3.9,0.6c0,0,0.1,0,0.1,0c0.1,0,0.2-0.1,0.3-0.2l24.7-38.7c0.1-0.1,0.1-0.3,0-0.4l-20.5-20.5
		c-0.1-0.1-0.1-0.1-0.2-0.1c-0.1,0-0.2,0-0.2,0.1l-47.6,47.8c-0.1,0.1-0.1,0.2-0.1,0.3C-195.4,681.3-195.3,681.4-195.2,681.4
		L-195.2,681.4L-195.2,681.4z"/>
	<path id="Fill-15_4_" fill="#3FB5A0" d="M-204.5,758.2c-0.4,0.4-0.7,0.8-1,1.2C-205.2,758.9-204.9,758.6-204.5,758.2L-204.5,758.2
		L-204.5,758.2z M-207,761.9c0.1,0,0.2-0.1,0.3-0.2c0.6-1.2,1.5-2.3,2.4-3.3c0.1-0.1,0.1-0.3,0-0.4c-0.3-0.4-27.4-40-27.4-40.1
		c-0.1-0.1-0.1-0.1-0.3-0.2h0c-0.1,0-0.2,0-0.2,0.1l-31.6,31.6c-0.1,0.1-0.1,0.2-0.1,0.3c0,0.1,0.1,0.2,0.3,0.2L-207,761.9
		C-207,761.9-207,761.9-207,761.9L-207,761.9L-207,761.9z"/>
	<path id="Fill-16_4_" fill="#3FB5A0" d="M-209.6,768.8c0-0.2-0.1-0.3-0.3-0.3l-49.1-10.3c0,0,0,0-0.1,0c-0.1,0-0.2,0.1-0.3,0.2
		c-0.1,0.1,0,0.3,0.1,0.4l21.9,22c0.1,0.1,0.2,0.1,0.2,0.1c0,0,0.1,0,0.1,0l27.2-11.7C-209.6,769.1-209.6,768.9-209.6,768.8"/>
</g>
<g id="Page-1_5_" sketch:type="MSShapeGroup">
	<g id="logo-text-dark_jm_4_">
		<g>
			<path id="Fill-17_4_" fill="#293433" d="M-134.9,879h11.5v74.6h-11.5V879L-134.9,879z"/>
			<path id="Fill-18_4_" fill="#293433" d="M-252.1,900.1c-6.1,0-11.1,2.3-14.9,7l-0.3-6.1h-10.8v52.6h11.5v-37.4
				c2.3-4.3,5.7-6.5,10.3-6.5c3.2,0,5.5,0.8,6.9,2.4s2.1,4.1,2.1,7.4v34.1h11.5v-34.7C-236.1,906.4-241.5,900.1-252.1,900.1"/>
			<path id="Fill-19_4_" fill="#293433" d="M-192.2,922.5h-21.9c0.5-4,1.8-7.2,3.7-9.5c1.9-2.3,4.5-3.4,7.6-3.4c3.2,0,5.7,1,7.5,3
				c1.8,2,2.8,5,3.1,9V922.5L-192.2,922.5z M-202.7,900.1c-4.4,0-8.3,1.2-11.9,3.4c-3.6,2.3-6.3,5.5-8.3,9.6c-2,4.1-3,8.8-3,14.1
				v1.5c0,7.8,2.3,14.1,6.8,18.8c4.5,4.7,10.4,7.1,17.7,7.1c4.2,0,8.1-0.9,11.5-2.6c3.4-1.7,6.1-4.2,8.2-7.3l-6.2-6.1
				c-3.3,4.4-7.6,6.6-12.8,6.6c-3.8,0-6.9-1.3-9.3-3.8c-2.5-2.5-3.9-6-4.2-10.3h33.4v-4.8c0-8.4-1.9-14.8-5.7-19.4
				C-190.3,902.4-195.7,900.1-202.7,900.1L-202.7,900.1L-202.7,900.1z"/>
			<path id="Fill-20_4_" fill="#293433" d="M-154.9,943.5c-0.8-0.9-1.2-2.3-1.2-4.3v-29.3h9v-8.8h-9v-12.8h-11.5v12.8h-8.4v8.8h8.4
				v29.8c0,10,4.4,15,13.2,15c2.4,0,5-0.4,7.6-1.1v-9.1c-1.4,0.3-2.7,0.5-4,0.5C-152.8,944.9-154.2,944.4-154.9,943.5"/>
			<path id="Fill-21_4_" fill="#293433" d="M-105.7,901.1h11.5v52.6h-11.5V901.1L-105.7,901.1z"/>
			<path id="Fill-22_4_" fill="#293433" d="M-29.2,936.7L-40,901.1h-12.4l18,52.3l-1.7,4.5c-0.9,2.6-2,4.4-3.5,5.5
				c-1.5,1.1-3.6,1.6-6.5,1.6l-2.2-0.1v9.2c2,0.6,3.8,0.9,5.5,0.9c7.5,0,12.8-4.4,15.9-13.3l20.3-60.5h-12.2L-29.2,936.7"/>
			<path id="Fill-23_4_" fill="#293433" d="M-71.7,882.8c-3.2,3.2-4.7,7.7-4.7,13.5v4.8h-7.8v8.8h7.8v43.8h11.5v-43.8h10.4v-8.8
				h-10.4v-4.7c0-5.8,2.7-8.7,8.2-8.7c1.7,0,3.1,0.1,4.4,0.4l0.3-9.2c-2.3-0.6-4.4-0.9-6.4-0.9C-64.1,878-68.5,879.6-71.7,882.8"/>
			<path id="Fill-24_4_" fill="#293433" d="M-105.7,878h11.5v10.3h-11.5V878L-105.7,878z"/>
		</g>
	</g>
</g>
</svg>
